#!OML:ASF E:\Steps\Project 1\Capture day 1\Session 2\Subject.ASF
:FULLY-SPECIFIED
:DEGREES
506
root 3.43953 18.7619 7.24793 -153.724 -2.76684 177.195
lowerback -32.0428 -2.5282 -7.62498
upperback -3.05951 -1.65847 -0.713163
thorax 13.2789 -1.61223 2.54763
lowerneck -3.57571 -2.91886 -1.76836
upperneck -2.13646 -3.91606 4.03372
head 0.0587998 -1.98602 1.49345
rclavicle 7.40473e-015 2.0276e-014
rhumerus -31.3349 -18.2991 -81.2025
rradius 27.377
rwrist 1.25207
rhand -9.63144 -411.377
rfingers 7.12502
rthumb 16.3385 -440.709
lclavicle 7.40473e-015 2.0276e-014
lhumerus -28.5551 -1.08292 84.9549
lradius 23.1551
lwrist -1.53769
lhand -22.4974 -12.4807
lfingers 7.12502
lthumb 3.92842 17.4628
rfemur -21.9662 5.72301 18.2449
rtibia 8.42794
rfoot -21.909 0.80282
rtoes -18.108
lfemur -20.8697 -6.44035 -25.6445
ltibia 9.63923
lfoot -11.5391 -1.00786
ltoes -20.9983
507
root 3.44001 18.7606 7.25003 -153.697 -2.89023 177.239
lowerback -32.015 -2.56791 -7.60922
upperback -3.0485 -1.71556 -0.683664
thorax 13.2869 -1.63554 2.54924
lowerneck -3.79386 -2.92985 -1.72663
upperneck -2.08715 -3.93165 3.80457
head 0.104505 -1.99174 1.40949
rclavicle -2.31336e-014 2.10712e-014
rhumerus -31.371 -18.2105 -81.242
rradius 27.4242
rwrist 1.10885
rhand -9.63651 -411.491
rfingers 7.12502
rthumb 16.3337 -440.823
lclavicle -2.31336e-014 2.10712e-014
lhumerus -28.6461 -0.946206 84.8809
lradius 23.0671
lwrist -1.67726
lhand -22.5255 -13.0873
lfingers 7.12502
lthumb 3.90135 16.8567
rfemur -21.9901 5.66953 18.3391
rtibia 8.41669
rfoot -20.9008 0.68725
rtoes -19.989
lfemur -20.8911 -6.35292 -25.5673
ltibia 9.59956
lfoot -11.3555 -1.26753
ltoes -18.9787
508
root 3.44174 18.7585 7.25803 -153.413 -2.98661 177.111
lowerback -32.1528 -2.65201 -7.79287
upperback -3.10583 -1.76979 -0.701547
thorax 13.2824 -1.67659 2.59953
lowerneck -3.67688 -2.8905 -1.71781
upperneck -2.23127 -3.88222 3.99659
head 0.0434192 -1.97166 1.47272
rclavicle -4.74598e-015 -4.77083e-015
rhumerus -31.4897 -18.2125 -81.2763
rradius 27.5853
rwrist 1.0461
rhand -9.64291 -411.716
rfingers 7.12502
rthumb 16.3275 -441.049
lclavicle -4.74598e-015 -4.77083e-015
lhumerus -28.822 -0.971755 84.8439
lradius 23.1361
lwrist -1.69016
lhand -22.6438 -13.1215
lfingers 7.12502
lthumb 3.7871 16.8246
rfemur -22.3927 5.80171 18.1331
rtibia 8.57398
rfoot -21.5342 0.298278
rtoes -19.236
lfemur -21.2961 -6.34244 -25.6602
ltibia 9.7168
lfoot -11.2413 -1.44488
ltoes -18.3395
509
root 3.43916 18.7616 7.24839 -153.59 -2.8646 177.083
lowerback -32.1213 -2.62538 -7.8283
upperback -2.99467 -1.69213 -0.740973
thorax 13.3892 -1.63904 2.60795
lowerneck -3.65497 -2.83136 -1.72973
upperneck -2.19277 -3.80363 4.09472
head 0.0518238 -1.93196 1.50711
rclavicle 6.48535e-015 2.50469e-014
rhumerus -31.5639 -18.2839 -81.2895
rradius 27.6697
rwrist 1.25949
rhand -9.62681 -411.995
rfingers 7.12502
rthumb 16.343 -441.326
lclavicle 6.48535e-015 2.50469e-014
lhumerus -28.9821 -0.989069 84.8025
lradius 23.2325
lwrist -1.60419
lhand -22.5889 -12.8856
lfingers 7.12502
lthumb 3.84014 17.0596
rfemur -22.1738 6.12577 18.0392
rtibia 8.61259
rfoot -20.9425 -0.0667649
rtoes -20.5117
lfemur -20.9599 -6.26051 -25.756
ltibia 9.51972
lfoot -11.1955 -1.41631
ltoes -17.5799
510
root 3.42622 18.7655 7.2109 -154.283 -2.37193 177.326
lowerback -32.0335 -2.35153 -7.47561
upperback -2.69995 -1.3798 -0.808963
thorax 13.6636 -1.46618 2.47779
lowerneck -3.85865 -2.95253 -1.64557
upperneck -2.4329 -3.97266 3.91781
head 0.0106257 -2.02234 1.43296
rclavicle 4.69629e-015 -6.75868e-015
rhumerus -31.6223 -18.3959 -81.273
rradius 27.5867
rwrist 1.57864
rhand -9.64176 -412.068
rfingers 7.12502
rthumb 16.3286 -441.401
lclavicle 4.69629e-015 -6.75868e-015
lhumerus -29.0507 -0.913797 84.6995
lradius 23.1343
lwrist -1.62691
lhand -22.5231 -12.6937
lfingers 7.12502
lthumb 3.90367 17.2502
rfemur -21.2877 6.22328 18.2876
rtibia 8.50103
rfoot -22.0168 0.514126
rtoes -18.7033
lfemur -19.7178 -6.24294 -25.698
ltibia 8.85971
lfoot -11.3886 -0.764203
ltoes -19.1047
511
root 3.42802 18.7654 7.21828 -154.153 -2.48485 177.282
lowerback -32.01 -2.41982 -7.57781
upperback -2.72421 -1.43911 -0.822606
thorax 13.6303 -1.49879 2.49362
lowerneck -4.05328 -3.05117 -1.57879
upperneck -2.60493 -4.11182 3.76234
head -0.0114519 -2.09648 1.36871
rclavicle -2.23633e-015 1.74931e-014
rhumerus -31.7039 -18.3965 -81.3021
rradius 27.5382
rwrist 1.42937
rhand -9.92414 -411.82
rfingers 7.12502
rthumb 16.0567 -441.174
lclavicle -2.23633e-015 1.74931e-014
lhumerus -29.0515 -0.827369 84.5932
lradius 22.9853
lwrist -1.62674
lhand -22.6399 -12.4172
lfingers 7.12502
lthumb 3.79088 17.5289
rfemur -21.5137 6.0922 18.2739
rtibia 8.62072
rfoot -22.3833 0.606143
rtoes -18.0923
lfemur -19.9767 -6.32785 -25.6958
ltibia 9.04279
lfoot -11.4623 -0.775619
ltoes -20.5703
